# xmcd CD database file
#
# Track frame offsets:
#	150
#	23315
#	46374
#	66297
#	83898
#	106331
#	123123
#	145590
#	161918
#	181943
#	204853
#	226025
#	247634
#	269205
#
# Disc length: 3825 seconds
#
# Revision: 0
# Processed by: cddbd v1.5.2PL0 Copyright (c) Steve Scherf et al.
# Submitted via: NeoAudio 9.9.9
#
DISCID=ac0eef0e
DTITLE=David Pabon - pura salsa
DYEAR=2006
DGENRE=Salsa
TTITLE0=Aquel Viejo Motel
TTITLE1=Como Lo Haces Conmigo
TTITLE2=Por Instinto
TTITLE3=Y Nos Amamos
TTITLE4=Mis Ganas Se Quedaron
TTITLE5=Cuando Hacemos El Amor
TTITLE6=Te Voy A Olvidar
TTITLE7=Damelo Todo
TTITLE8=Un Dia Si, Un Dia No
TTITLE9=Apagame
TTITLE10=Cuando Bailas
TTITLE11=Quererte Asi
TTITLE12=Ha Llegado La Hora
TTITLE13=Vete Con El
EXTD=YEAR: 2006
EXTT0=
EXTT1=
EXTT2=
EXTT3=
EXTT4=
EXTT5=
EXTT6=
EXTT7=
EXTT8=
EXTT9=
EXTT10=
EXTT11=
EXTT12=
EXTT13=
PLAYORDER=
